# xmcd
#
# Track frame offsets:
#	150
#	18348
#	36502
#	54642
#	72688
#	92407
#	106156
#	124348
#	142510
#	160609
#	178640
#	198393
#
# Disc length: 2828 seconds
#
# Revision: 1
# Processed by: cddbd v1.5.2PL0 Copyright (c) Steve Scherf et al.
# Submitted via: audiograbber 1.83.01
#
DISCID=9e0b0a0c
DTITLE=Various Artist - CB20094 Hot Hits Vol. 94
DYEAR=1900
DGENRE=Country
TTITLE0=John Berry - Love Is For Giving (Vocals)
TTITLE1=Shane McAnally - Are Your Eyes Still Blue (Vocals)
TTITLE2=Brady Seals - The Best Is Yet To Come (Vocals)
TTITLE3=Jason Sellers - A Matter Of Time (Vocals)
TTITLE4=Charlie Robison - You're Not The Best (Vocals)
TTITLE5=Roger Springer Band - Ain't Nothin' But A Cloud (Vocals)
TTITLE6=John Berry - Love Is  For Giving
TTITLE7=Shane McAnally - Are Your Eyes Still Blue
TTITLE8=Brady Seals - The Best Is Yet To Come 
TTITLE9=Jason Sellers - A Matter Of Time
TTITLE10=Charlie Robison - You're Not The Best
TTITLE11=Roger Springer Band - Ain't Nothin' But A Cloud
EXTD=
EXTT0=
EXTT1=
EXTT2=
EXTT3=
EXTT4=
EXTT5=
EXTT6=
EXTT7=
EXTT8=
EXTT9=
EXTT10=
EXTT11=
PLAYORDER=
